<svg width="512" height="512" viewBox="0 0 512 512" fill="none" xmlns="http://www.w3.org/2000/svg">
  <rect width="512" height="512" rx="128" fill="#12241A"/>
  <circle cx="256" cy="256" r="232" fill="url(#bg)"/>
  <circle cx="256" cy="208" r="104" fill="#E6C8B0"/>
  <path d="M136 420C136 344.889 189.726 304 256 304C322.274 304 376 344.889 376 420V448H136V420Z" fill="#5C6C5B"/>
  <path d="M160 204C160 120.889 206.562 80 256 80C305.438 80 352 120.889 352 204V220H160V204Z" fill="#E4E7E8"/>
  <path d="M176 220C192 180 222 156 256 156C290 156 320 180 336 220H176Z" fill="#BAC1C5"/>
  <text x="256" y="438" text-anchor="middle" fill="#F3F6EF" font-size="72" font-family="Arial, sans-serif" font-weight="700">DA</text>
  <defs>
    <linearGradient id="bg" x1="80" y1="64" x2="432" y2="448" gradientUnits="userSpaceOnUse">
      <stop stop-color="#2E5C44"/>
      <stop offset="1" stop-color="#9F7A3B"/>
    </linearGradient>
  </defs>
</svg>
