<svg xmlns="http://www.w3.org/2000/svg" viewBox="0 0 512 512" role="img" aria-labelledby="title desc">
  <title id="title">The Knight Who Says Ni avatar</title>
  <desc id="desc">A stylized horned knight in a forest with shrubbery.</desc>
  <defs>
    <linearGradient id="bg" x1="0" x2="1" y1="0" y2="1">
      <stop offset="0" stop-color="#314a2b" />
      <stop offset=".52" stop-color="#172718" />
      <stop offset="1" stop-color="#0a100f" />
    </linearGradient>
    <radialGradient id="moon" cx=".34" cy=".19" r=".56">
      <stop offset="0" stop-color="#edf5c0" stop-opacity=".85" />
      <stop offset=".36" stop-color="#c3d988" stop-opacity=".32" />
      <stop offset="1" stop-color="#c3d988" stop-opacity="0" />
    </radialGradient>
    <linearGradient id="helm" x1="0" x2="1" y1="0" y2="1">
      <stop offset="0" stop-color="#eef1ec" />
      <stop offset=".48" stop-color="#aab4ab" />
      <stop offset="1" stop-color="#5f695f" />
    </linearGradient>
    <linearGradient id="cloak" x1="0" x2="1" y1="0" y2="1">
      <stop offset="0" stop-color="#7db365" />
      <stop offset="1" stop-color="#35542f" />
    </linearGradient>
    <linearGradient id="horn" x1="0" x2="0" y1="0" y2="1">
      <stop offset="0" stop-color="#f7edd2" />
      <stop offset="1" stop-color="#bb9e69" />
    </linearGradient>
    <filter id="shadow" x="-20%" y="-20%" width="140%" height="140%">
      <feDropShadow dx="0" dy="12" stdDeviation="18" flood-color="#000" flood-opacity=".32" />
    </filter>
  </defs>

  <rect width="512" height="512" fill="url(#bg)" />
  <rect width="512" height="512" fill="url(#moon)" />

  <g opacity=".34">
    <path d="M0 171c44-23 84-18 121 15 44 39 76 42 123 13 44-27 82-27 118-2 32 23 82 34 150 32v183H0V171Z" fill="#203020" />
    <path d="M0 222c31-14 66-10 102 12 58 37 104 43 147 16 57-36 102-40 148-10 37 24 75 33 115 27v145H0V222Z" fill="#2b4227" />
  </g>

  <g filter="url(#shadow)">
    <path d="M132 469c12-98 62-151 124-151s111 53 124 151H132Z" fill="#18201a" />
    <path d="M115 475c13-55 41-98 82-129 17-13 37-23 59-29 21 6 41 16 58 29 42 31 69 74 83 129H115Z" fill="url(#cloak)" />
    <path d="M196 340c13-18 33-31 60-38 29 8 50 21 61 38l-27 47h-69l-25-47Z" fill="#d7e4d2" fill-opacity=".28" />

    <path d="M168 202c-13-44-36-70-69-79 2-17 13-31 34-41 34 3 60 30 79 82l-44 38Z" fill="url(#horn)" />
    <path d="M344 202c13-44 36-70 69-79-2-17-13-31-34-41-34 3-60 30-79 82l44 38Z" fill="url(#horn)" />
    <path d="M211 143c12-25 27-38 45-38s33 13 45 38l18 36-18 140H211l-18-140 18-36Z" fill="url(#helm)" />
    <path d="M197 179h118l-5 44H202l-5-44Z" fill="#778276" />
    <path d="M206 180c14-16 31-24 50-24s36 8 50 24v90c-15 15-32 22-50 22s-35-7-50-22v-90Z" fill="#2c312c" />
    <path d="M236 200c-15 3-25 12-31 29 12 10 24 14 35 12 14-3 24-14 28-34-11-7-22-9-32-7Z" fill="#1b1f1c" />
    <path d="M276 200c15 3 25 12 31 29-12 10-24 14-35 12-14-3-24-14-28-34 11-7 22-9 32-7Z" fill="#1b1f1c" />
    <path d="M244 232c-7 0-13 4-18 12 11 7 21 10 30 8 7-1 13-6 18-15-10-4-20-5-30-5Z" fill="#c33e2f" fill-opacity=".85" />
    <path d="M268 232c7 0 13 4 18 12-11 7-21 10-30 8-7-1-13-6-18-15 10-4 20-5 30-5Z" fill="#c33e2f" fill-opacity=".85" />
    <path d="M224 305h64l15 41h-94l15-41Z" fill="#8f978f" />
    <rect x="242" y="300" width="28" height="55" rx="8" fill="#dae0da" />
  </g>

  <g>
    <path d="M59 451c18-29 49-46 93-50 18 1 33 8 46 20-8 16-16 35-22 56H59v-26Z" fill="#45643b" />
    <path d="M118 477c4-28 15-53 34-74 15 12 27 30 35 54l-69 20Z" fill="#7aab60" />
    <path d="M334 470c10-28 28-50 55-65 46-15 87-6 123 29v43H334v-7Z" fill="#3a5834" />
    <path d="M366 477c6-19 20-37 41-54 25 7 46 25 65 54h-106Z" fill="#74a759" />
    <path d="M182 477c9-20 24-39 45-54 10 10 21 28 31 54h-76Z" fill="#69964f" />
  </g>

  <path d="M256 83c29 0 53 18 73 54-22-18-46-26-73-26s-51 8-73 26c20-36 44-54 73-54Z" fill="#f7edd2" fill-opacity=".2" />
</svg>
